<?xml version="1.0" encoding="utf-8"?>
<!-- Generator: Adobe Illustrator 25.0.0, SVG Export Plug-In . SVG Version: 6.00 Build 0)  -->
<svg version="1.1" id="Слой_1" xmlns="http://www.w3.org/2000/svg" xmlns:xlink="http://www.w3.org/1999/xlink" x="0px" y="0px"
	 viewBox="0 0 32 32" style="enable-background:new 0 0 32 32;" xml:space="preserve">
<style type="text/css">
	.st0{fill:#FEF0F0;}
	.st1{fill:#FF8585;}
</style>
<path class="st0" d="M7,0h18c3.9,0,7,3.1,7,7v18c0,3.9-3.1,7-7,7H7c-3.9,0-7-3.1-7-7V7C0,3.1,3.1,0,7,0z"/>
<path class="st1" d="M22.9,12.2c-0.2-0.5-0.5-1-0.9-1.4c-0.4-0.4-0.9-0.7-1.4-0.9c-0.5-0.2-1.1-0.3-1.7-0.3c-0.8,0-1.6,0.2-2.3,0.6
	c-0.2,0.1-0.3,0.2-0.5,0.3c-0.2-0.1-0.3-0.2-0.5-0.3c-0.7-0.4-1.5-0.6-2.3-0.6c-0.6,0-1.2,0.1-1.7,0.3c-0.5,0.2-1,0.5-1.4,0.9
	c-0.4,0.4-0.7,0.9-0.9,1.4c-0.2,0.5-0.4,1.1-0.4,1.7c0,0.6,0.1,1.1,0.3,1.7c0.2,0.5,0.5,1,0.8,1.5c0.5,0.8,1.3,1.7,2.2,2.5
	c1.5,1.4,3.1,2.4,3.1,2.4l0.4,0.3c0.2,0.1,0.4,0.1,0.6,0l0.4-0.3c0.1,0,1.6-1,3.1-2.4c0.9-0.9,1.7-1.7,2.2-2.5
	c0.3-0.5,0.6-1,0.8-1.5c0.2-0.6,0.3-1.2,0.3-1.7C23.2,13.3,23.1,12.8,22.9,12.2z"/>
</svg>
